<svg width="280" height="98" viewBox="0 0 280 98" fill="none" xmlns="http://www.w3.org/2000/svg">
<path d="M76.8196 34.5215C65.291 34.5215 61.999 43.4483 61.999 49.6563C61.999 56.0685 65.2946 64.9953 76.8196 64.9953C88.3448 64.9953 91.6404 56.0649 91.6404 49.6527C91.6404 43.4447 88.3484 34.5215 76.8196 34.5215ZM76.8196 60.3743C68.378 60.3743 67.0914 52.3717 67.0914 49.6527C67.0914 46.9339 68.378 39.1353 76.8196 39.1353C85.2614 39.1353 86.494 46.9339 86.494 49.6527C86.494 52.3717 85.2578 60.3743 76.8196 60.3743Z" fill="#8C7343"/>
<path d="M105.383 54.9361L97.0456 34.8291H91.6406L105.178 65.0415H105.588L119.122 34.8291H113.667L105.383 54.9361Z" fill="#8C7343"/>
<path d="M122.213 64.7873H142.23V60.2199H127.305V52.2709H138.989V47.7037H127.305V39.3427H142.23V34.8291H122.213V64.7873Z" fill="#8C7343"/>
<path d="M166.502 53.0912L147.358 34.417L147.153 34.521V64.7872H152.3V46.525L171.339 65.2492L171.648 65.1454V34.829H166.502V53.0912Z" fill="#8C7343"/>
<path d="M188.506 34.8291H177.236V64.7873H182.332V53.9117H189.125C193.911 53.9117 199.058 50.1145 199.058 44.2683C199.058 40.3673 196.589 34.8291 188.506 34.8291ZM188.92 49.2941H182.332V39.2889H188.765C193.038 39.2889 194.016 42.5739 194.016 44.2647C194.016 45.8587 193.035 49.2941 188.92 49.2941Z" fill="#8C7343"/>
<path d="M208.402 34.8291H203.256V64.7873H208.402V34.8291Z" fill="#8C7343"/>
<path d="M228.016 38.8806C231.104 38.8806 234.244 40.729 236.044 42.6776L239.39 39.4466C236.508 36.3156 233.112 34.2666 228.016 34.2666C216.538 34.2666 213.142 43.5016 213.142 49.6558C213.142 56.068 216.538 65.2492 228.016 65.2492C232.958 65.2492 236.404 63.5048 239.286 60.6318L236.3 56.9386C234.344 58.787 231.358 60.528 228.012 60.528C219.57 60.3738 218.284 52.4214 218.284 49.6522C218.288 46.9334 219.574 38.8806 228.016 38.8806Z" fill="#8C7343"/>
<path d="M252.518 49.2941L266.362 34.9831L266.308 34.8291H260.134L248.71 46.7293V34.8291H243.614V64.7873H248.71V51.7049L261.06 64.7873H267.286L267.34 64.6333L252.518 49.2941Z" fill="#8C7343"/>
<path d="M69.8872 31.2972C71.5186 31.2972 72.8484 29.9718 72.8484 28.3454C72.8484 26.719 71.5186 25.3936 69.8872 25.3936C68.2556 25.3936 66.9258 26.719 66.9258 28.3454C66.9258 29.9718 68.2556 31.2972 69.8872 31.2972Z" fill="#8C7343"/>
<path d="M82.178 31.2972C83.8096 31.2972 85.1394 29.9718 85.1394 28.3454C85.1394 26.719 83.8096 25.3936 82.178 25.3936C80.5466 25.3936 79.2168 26.719 79.2168 28.3454C79.2168 29.9718 80.5466 31.2972 82.178 31.2972Z" fill="#8C7343"/>
<path d="M48.7886 28.5674L37.1124 53.754L25.4398 28.5674H25.0806L12.6641 64.7372H14.3819C14.3819 64.7372 18.3674 64.8124 19.5461 61.2052L25.8928 42.008L36.9076 65.1992H37.3208L48.3356 42.008L54.6822 61.2052C55.861 64.816 59.8464 64.7372 59.8464 64.7372H61.5642L49.1478 28.5674H48.7886Z" fill="#8C7343"/>
<path d="M162.542 23.3264C161.655 23.9212 161.044 24.326 160.462 24.7164C160.458 24.72 160.451 24.7236 160.447 24.7272C161.619 25.6298 163.789 26.5756 165.863 26.6294C166.528 25.9022 166.862 25.526 167.433 24.892C171.692 20.1812 174.222 20.364 175.386 20.278C173.636 19.4111 168.928 19.0529 162.542 23.3264Z" fill="#8C7343"/>
<path d="M158.83 25.8014C156.044 24.7196 152.968 22.6884 149.227 19.357C142.935 13.758 136.976 14.1843 134.13 14.8613C134.442 14.933 134.863 15.0297 135.373 15.1837C137.573 15.85 141.465 17.5838 145.842 22.8568C148.127 25.608 150.237 27.392 152.131 28.5168C152.134 28.5168 152.138 28.5168 152.142 28.5204C152.142 28.5204 152.138 28.5204 152.138 28.5168C152.188 28.549 152.242 28.5776 152.293 28.6098C158.822 32.4716 163.785 28.635 165.327 27.177L165.435 27.073C165.439 27.073 165.439 27.073 165.442 27.073C165.503 27.0122 165.73 26.7794 165.819 26.6862L165.834 26.6718C163.552 26.9692 161.306 26.765 158.83 25.8014Z" fill="#8C7343"/>
<path d="M36.6016 85.2019V72.5781H38.765V77.7295H44.9716V72.5781H47.135V85.2019H44.9716V79.5491H38.765V85.2019H36.6016Z" fill="#8C7343"/>
<path d="M51.5586 78.89C51.5586 74.9316 54.3834 72.1338 58.4444 72.1338C62.5232 72.1338 65.348 74.9316 65.348 78.89C65.348 82.8662 62.5232 85.646 58.4444 85.646C54.3834 85.646 51.5586 82.8662 51.5586 78.89ZM53.7042 78.89C53.7042 81.7414 55.67 83.7762 58.4444 83.794C61.233 83.794 63.2024 81.745 63.2024 78.89C63.2024 76.0386 61.2366 74.0038 58.4444 74.0038C55.67 74.0038 53.7042 76.0386 53.7042 78.89Z" fill="#8C7343"/>
<path d="M71.9319 74.4159H67.8711V72.5781H78.1205V74.4159H74.0775V85.2019H71.9319V74.4159Z" fill="#8C7343"/>
<path d="M83.9711 83.3821H90.8387V85.2019H81.8975V72.5781H90.6625V74.3979H83.9745V77.8727H89.9475V79.5133H83.9745V83.3821H83.9711Z" fill="#8C7343"/>
<path d="M95.2588 85.2019V72.5781H97.4044V83.3463H103.377V85.2019H95.2588Z" fill="#8C7343"/>
<path d="M111.859 85.6465C108.693 85.6465 106.403 83.7193 106.403 81.0827H108.441C108.441 82.7055 109.871 83.8805 111.913 83.8805C113.72 83.8805 114.773 82.9527 114.773 81.6881C114.773 80.2445 113.163 80.0297 111.374 79.7789C108.994 79.4565 106.561 79.0301 106.561 76.1249C106.561 73.7893 108.545 72.1309 111.499 72.1309C114.468 72.1309 116.613 73.9505 116.613 76.4617H114.629C114.629 74.9643 113.325 73.8933 111.517 73.8933C109.799 73.8933 108.693 74.7495 108.693 75.9065C108.693 77.3501 110.159 77.5829 111.984 77.8337C114.346 78.1561 116.904 78.5823 116.904 81.4159C116.904 83.8841 114.953 85.6465 111.859 85.6465Z" fill="#8C7343"/>
<path d="M133.432 81.599C133.968 80.904 134.399 80.0836 134.719 79.138H136.616C136.189 80.492 135.506 81.7064 134.683 82.7202C134.916 82.9352 137.206 85.002 137.418 85.199H134.805L133.411 83.9524C132.16 85.0236 130.658 85.6468 129.138 85.6468C126.633 85.6468 124.847 84.1494 124.847 81.975C124.847 80.0336 126.007 79.07 127.441 78.4108C126.798 77.662 126.295 76.7164 126.313 75.631C126.313 73.6894 127.923 72.2602 129.996 72.2422C132.016 72.2422 133.626 73.5962 133.878 75.4698L131.998 75.828C131.872 74.739 131.085 73.9544 130.032 73.9544C129.048 73.9544 128.243 74.6494 128.243 75.7206C128.243 76.4872 128.67 77.2716 129.511 78.0382L133.432 81.599ZM128.692 79.6394C127.564 80.0658 126.902 80.7106 126.902 81.8856C126.902 83.0606 127.977 83.8988 129.461 83.8988C130.428 83.8988 131.359 83.5082 132.146 82.8276C131.858 82.5626 128.979 79.9082 128.692 79.6394Z" fill="#8C7343"/>
<path d="M147.706 85.2019H145.561V72.5781H151.39C154.16 72.5781 156.148 74.2725 156.148 76.6799C156.148 78.3743 154.915 79.8715 153.197 80.3157L156.363 85.2019H153.895L151.106 80.6381H147.706V85.2019ZM147.706 74.3443V78.9259H151.142C152.788 78.9259 154.002 77.9801 154.002 76.6799C154.002 75.2003 152.806 74.3443 151.142 74.3443H147.706Z" fill="#8C7343"/>
<path d="M162.858 83.3821H169.725V85.2019H160.784V72.5781H169.549V74.3979H162.861V77.8727H168.834V79.5133H162.861V83.3821H162.858Z" fill="#8C7343"/>
<path d="M179.048 85.6465C175.882 85.6465 173.593 83.7193 173.593 81.0827H175.63C175.63 82.7055 177.061 83.8805 179.102 83.8805C180.91 83.8805 181.963 82.9527 181.963 81.6881C181.963 80.2445 180.353 80.0297 178.563 79.7789C176.184 79.4565 173.751 79.0301 173.751 76.1249C173.751 73.7893 175.735 72.1309 178.689 72.1309C181.657 72.1309 183.803 73.9505 183.803 76.4617H181.819C181.819 74.9643 180.514 73.8933 178.707 73.8933C176.989 73.8933 175.882 74.7495 175.882 75.9065C175.882 77.3501 177.348 77.5829 179.174 77.8337C181.535 78.1561 184.094 78.5823 184.094 81.4159C184.094 83.8841 182.142 85.6465 179.048 85.6465Z" fill="#8C7343"/>
<path d="M188.01 78.89C188.01 74.9316 190.835 72.1338 194.895 72.1338C198.974 72.1338 201.8 74.9316 201.8 78.89C201.8 82.8662 198.974 85.646 194.895 85.646C190.838 85.646 188.01 82.8662 188.01 78.89ZM190.155 78.89C190.155 81.7414 192.121 83.7762 194.895 83.794C197.684 83.794 199.654 81.745 199.654 78.89C199.654 76.0386 197.688 74.0038 194.895 74.0038C192.125 74.0038 190.155 76.0386 190.155 78.89Z" fill="#8C7343"/>
<path d="M208.386 85.2019H206.242V72.5781H212.07C214.842 72.5781 216.828 74.2725 216.828 76.6799C216.828 78.3743 215.596 79.8715 213.878 80.3157L217.044 85.2019H214.576L211.786 80.6381H208.386V85.2019ZM208.386 74.3443V78.9259H211.822C213.468 78.9259 214.684 77.9801 214.684 76.6799C214.684 75.2003 213.486 74.3443 211.822 74.3443H208.386Z" fill="#8C7343"/>
<path d="M223.696 74.4159H219.636V72.5781H229.884V74.4159H225.842V85.2019H223.696V74.4159Z" fill="#8C7343"/>
<path d="M238.564 85.6465C235.398 85.6465 233.108 83.7193 233.108 81.0827H235.146C235.146 82.7055 236.576 83.8805 238.618 83.8805C240.426 83.8805 241.478 82.9527 241.478 81.6881C241.478 80.2445 239.868 80.0297 238.078 79.7789C235.7 79.4565 233.266 79.0301 233.266 76.1249C233.266 73.7893 235.25 72.1309 238.204 72.1309C241.172 72.1309 243.318 73.9505 243.318 76.4617H241.334C241.334 74.9643 240.03 73.8933 238.222 73.8933C236.504 73.8933 235.398 74.7495 235.398 75.9065C235.398 77.3501 236.864 77.5829 238.69 77.8337C241.05 78.1561 243.61 78.5823 243.61 81.4159C243.606 83.8841 241.658 85.6465 238.564 85.6465Z" fill="#8C7343"/>
</svg>
