<svg width="512" height="512" viewBox="0 0 512 512" fill="none" xmlns="http://www.w3.org/2000/svg">
<path d="M344.1 233.6C315.2 233.6 311.2 262.4 311.2 262.4H372.6C372.6 262.4 373 233.6 344.1 233.6V233.6ZM204.8 262.4H150.4V312.4H202.1C209.9 312.2 224.5 310 224.5 288.1C224.5 262.1 204.8 262.4 204.8 262.4V262.4Z" fill="#BBBBBB"/>
<path d="M256 32C132.3 32 32 132.3 32 256C32 379.7 132.3 480 256 480C379.7 480 480 379.7 480 256C480 132.3 379.7 32 256 32ZM303.2 169.6H380.3V192.6H303.2V169.6V169.6ZM264.2 290.4C264.2 347.4 204.8 345.6 204.8 345.6H107.6V158.6H204.8C234.4 158.6 257.7 174.9 257.7 208.4C257.7 241.9 229.2 244 229.2 244C266.8 244 264.2 290.4 264.2 290.4ZM408.4 287.3H311.5C311.5 322 344.4 319.8 344.4 319.8C375.5 319.8 374.4 299.7 374.4 299.7H407.3C407.3 353.1 343.3 349.4 343.3 349.4C266.6 349.4 271.5 277.9 271.5 277.9C271.5 277.9 271.4 206.1 343.3 206.1C419 206.2 408.4 287.3 408.4 287.3V287.3Z" fill="#BBBBBB"/>
<path d="M218 211.3C218 191.9 204.8 191.9 204.8 191.9H150.4V233.6H201.4C210.2 233.6 218 230.7 218 211.3Z" fill="#BBBBBB"/>
</svg>
