<svg width="19" height="19" viewBox="0 0 19 19" fill="none" xmlns="http://www.w3.org/2000/svg">
<path d="M13.4654 6.12835H12.4709C12.2546 6.12835 12.0489 6.23225 11.9217 6.41038L8.58817 11.0331L7.07835 8.93806C6.95112 8.76205 6.74754 8.65603 6.52913 8.65603H5.5346C5.39676 8.65603 5.31618 8.81295 5.39676 8.92533L8.03895 12.5896C8.10137 12.6767 8.18365 12.7477 8.27898 12.7967C8.37431 12.8457 8.47994 12.8712 8.58711 12.8712C8.69428 12.8712 8.79991 12.8457 8.89524 12.7967C8.99057 12.7477 9.07285 12.6767 9.13527 12.5896L13.6011 6.39766C13.6838 6.28527 13.6032 6.12835 13.4654 6.12835Z" fill="#FF6B00"/>
<path d="M9.5 0C4.25379 0 0 4.25379 0 9.5C0 14.7462 4.25379 19 9.5 19C14.7462 19 19 14.7462 19 9.5C19 4.25379 14.7462 0 9.5 0ZM9.5 17.3884C5.14442 17.3884 1.61161 13.8556 1.61161 9.5C1.61161 5.14442 5.14442 1.61161 9.5 1.61161C13.8556 1.61161 17.3884 5.14442 17.3884 9.5C17.3884 13.8556 13.8556 17.3884 9.5 17.3884Z" fill="#FF6B00"/>
</svg>
