<svg width="36" height="36" viewBox="0 0 36 36" fill="none" xmlns="http://www.w3.org/2000/svg">
<path d="M18 32.925H25.5V29.925H18C11.49 29.925 6 24.435 6 17.925C6 11.415 11.49 5.92505 18 5.92505C24.51 5.92505 30 11.415 30 17.925V20.07C30 21.255 28.935 22.425 27.75 22.425C26.565 22.425 25.5 21.255 25.5 20.07V17.925C25.5 13.785 22.14 10.425 18 10.425C13.86 10.425 10.5 13.785 10.5 17.925C10.5 22.065 13.86 25.4251 18 25.4251C20.07 25.4251 21.96 24.585 23.31 23.22C24.285 24.555 25.965 25.4251 27.75 25.4251C30.705 25.4251 33 23.025 33 20.07V17.925C33 9.64505 26.28 2.92505 18 2.92505C9.72 2.92505 3 9.64505 3 17.925C3 26.205 9.72 32.925 18 32.925ZM18 22.425C15.51 22.425 13.5 20.415 13.5 17.925C13.5 15.435 15.51 13.425 18 13.425C20.49 13.425 22.5 15.435 22.5 17.925C22.5 20.415 20.49 22.425 18 22.425Z" fill="#0A7DFF"/>
</svg>
