<svg width="24" height="24" viewBox="0 0 24 24" fill="none" xmlns="http://www.w3.org/2000/svg">
<path d="M18 4H6C4.34315 4 3 5.34315 3 7V9C3 10.6569 4.34315 12 6 12H18C19.6569 12 21 10.6569 21 9V7C21 5.34315 19.6569 4 18 4Z" stroke="#0A7DFF" stroke-width="2" stroke-linecap="round" stroke-linejoin="round"/>
<path d="M18 12H6C4.34315 12 3 13.3431 3 15V17C3 18.6569 4.34315 20 6 20H18C19.6569 20 21 18.6569 21 17V15C21 13.3431 19.6569 12 18 12Z" stroke="#0A7DFF" stroke-width="2" stroke-linecap="round" stroke-linejoin="round"/>
<path d="M7 8V8.01M7 16V16.01M11 8H17M11 16H17" stroke="#0A7DFF" stroke-width="2" stroke-linecap="round" stroke-linejoin="round"/>
</svg>
