<svg width="42" height="42" fill="none" xmlns="http://www.w3.org/2000/svg"><g clip-path="url(#a)"><path d="m22.229 3.841 12.25 4.594a3.5 3.5 0 0 1 2.271 3.278v9.385a15.75 15.75 0 0 1-8.706 14.087l-5.87 2.935a2.624 2.624 0 0 1-2.348 0l-5.87-2.934A15.751 15.751 0 0 1 5.25 21.097v-9.385a3.5 3.5 0 0 1 2.271-3.278l12.25-4.594a3.5 3.5 0 0 1 2.457 0ZM21 7.12 8.75 11.713v9.385a12.25 12.25 0 0 0 6.773 10.955L21 34.795l5.477-2.739a12.25 12.25 0 0 0 6.773-10.958v-9.385L21 7.119ZM21 14a3.5 3.5 0 0 1 1.985 6.384l-.235.149v5.717a1.75 1.75 0 0 1-3.488.205l-.012-.205v-5.717A3.5 3.5 0 0 1 21 14Z" fill="#0A7DFF"/></g><defs><clipPath id="a"><path fill="#fff" d="M0 0h42v42H0z"/></clipPath></defs></svg>