<svg width="40" height="40" viewBox="0 0 40 40" fill="none" xmlns="http://www.w3.org/2000/svg">
<path d="M11.0001 24.9239L3.24688 28.403C1.59687 29.153 1.59687 30.3811 3.24688 31.1311L17.122 37.4593C18.7054 38.1802 21.3117 38.1802 22.8951 37.4593L36.7702 31.1311C38.4202 30.3811 38.4202 29.153 36.7702 28.403L29.2758 24.7964M11.0001 15.1701L3.23751 18.6539C1.5875 19.4039 1.5875 20.632 3.23751 21.382L17.1126 27.7092C18.696 28.4311 21.3023 28.4311 22.8858 27.7092L36.7609 21.382C38.4202 20.632 38.4202 19.4039 36.7702 18.6539L29.0002 15.1701M36.7627 8.90473L22.7601 2.52032C21.2423 1.82656 18.7579 1.82656 17.2401 2.52032L3.24688 8.90473C1.59687 9.65474 1.59687 10.8819 3.24688 11.6319L17.122 17.9601C18.7054 18.682 21.3117 18.682 22.8951 17.9601L36.7702 11.6319C38.4127 10.8819 38.4127 9.6538 36.7627 8.90473Z" stroke="#0A7DFF" stroke-width="3.00002" stroke-linecap="round" stroke-linejoin="round"/>
</svg>
