<svg width="37" height="37" fill="none" xmlns="http://www.w3.org/2000/svg"><path d="M15.857 26.357a11.821 11.821 0 0 1-2.685-.621c.027-.624.042-1.274.042-1.95v-.891a9.18 9.18 0 0 0 2.643.798v-6.515a3.964 3.964 0 0 1 3.965-3.964h6.514A9.249 9.249 0 0 0 12.89 6.337a8.442 8.442 0 0 0-1.02-2.447A11.893 11.893 0 0 1 29 13.214h4.036A3.964 3.964 0 0 1 37 17.178v13.215a3.965 3.965 0 0 1-3.964 3.964H19.822a3.965 3.965 0 0 1-3.965-3.964v-4.036ZM29 15.857a11.898 11.898 0 0 1-10.5 10.5v4.036a1.321 1.321 0 0 0 1.322 1.321h13.214a1.322 1.322 0 0 0 1.322-1.321V17.178a1.321 1.321 0 0 0-1.322-1.321H29Zm-2.664 0h-6.514a1.321 1.321 0 0 0-1.322 1.321v6.515a9.255 9.255 0 0 0 7.836-7.836ZM10.03 17.34c-.278-1.02-.727-2.043-1.499-2.828 1.248-1.182 2.04-3.063 2.04-5.262 0-1.842-.372-3.108-1.046-4.12a7.265 7.265 0 0 0-1.03-1.198 24.24 24.24 0 0 0-.45-.423c-.161-.15-.31-.288-.502-.48-.397-.397-.442-.714-.442-.88 0-.093.016-.185.045-.273A1.321 1.321 0 0 0 5.214.222L5.21.224 5.1.298c-.397.283-.78.586-1.145.907-.661.584-1.523 1.448-2.133 2.479A12.5 12.5 0 0 0 .547 6.41C.23 7.361 0 8.388 0 9.25c0 2.199.793 4.078 2.04 5.264-.771.783-1.22 1.805-1.498 2.828C0 19.33 0 21.788 0 23.688v.098c0 5.439 1.018 8.668 2.17 10.59.579.962 1.181 1.583 1.686 1.974.269.21.562.387.872.528.18.066.367.107.558.122.222 0 .557-.122.557-.122.31-.14.604-.318.873-.528.502-.391 1.11-1.012 1.686-1.974 1.152-1.92 2.17-5.151 2.17-10.59v-.096c0-1.902 0-4.358-.542-6.35Zm-6.1-.978c.299-.302.698-.505 1.356-.505.66 0 1.057.206 1.356.502.333.336.62.88.837 1.676.44 1.614.45 3.734.45 5.75 0 5.133-.965 7.85-1.795 9.232-.317.529-.616.87-.848 1.084a4.909 4.909 0 0 1-.849-1.084c-.83-1.385-1.794-4.099-1.794-9.231 0-2.017.01-4.137.45-5.751.216-.793.504-1.338.837-1.673Zm1.356-3.148c-1.018 0-2.643-1.131-2.643-3.964 0-.457.137-1.182.412-2a9.845 9.845 0 0 1 1.028-2.202c.23-.389.529-.767.851-1.113.183.322.423.647.74.965.193.192.444.425.658.626l.328.306c.278.27.492.505.663.767.318.473.606 1.19.606 2.65 0 2.834-1.626 3.965-2.643 3.965Z" fill="#0A7DFF"/></svg>