<svg width="37" height="37" fill="none" xmlns="http://www.w3.org/2000/svg"><path d="M11.57 12.95a3.236 3.236 0 0 1 3.238 3.238v17.575A3.238 3.238 0 0 1 11.57 37H3.238A3.238 3.238 0 0 1 0 33.763V16.188a3.236 3.236 0 0 1 3.238-3.238h8.332Zm0 2.775H3.238a.462.462 0 0 0-.463.463v17.575c0 .255.207.462.463.462h8.332a.462.462 0 0 0 .463-.462V16.188a.462.462 0 0 0-.463-.463ZM7.861 29.6a1.388 1.388 0 0 1 .189 2.762l-.189.013h-.925a1.388 1.388 0 0 1-.187-2.762l.187-.013h.925ZM32.837 0a4.163 4.163 0 0 1 4.154 3.878l.009.284v16.65a4.162 4.162 0 0 1-3.878 4.154l-.285.009h-6.93v3.7h2.305a1.388 1.388 0 0 1 .189 2.762l-.189.013H16.65v-2.775h6.483v-3.7h-6.483V22.2h16.188a1.388 1.388 0 0 0 1.377-1.199l.01-.189V4.163a1.388 1.388 0 0 0-1.387-1.387H7.861a1.388 1.388 0 0 0-1.375 1.199l-.013.188V11.1H3.698V4.162A4.162 4.162 0 0 1 7.576.01L7.861 0h24.976Z" fill="#0A7DFF"/></svg>