<svg width="39" height="29" viewBox="0 0 39 29" fill="none" xmlns="http://www.w3.org/2000/svg">
<path d="M36.2222 0.166626H2.7778C2.14423 0.166626 1.53661 0.418312 1.08861 0.866315C0.640602 1.31432 0.388916 1.92194 0.388916 2.55552V26.4444C0.388916 27.078 0.640602 27.6856 1.08861 28.1336C1.53661 28.5816 2.14423 28.8333 2.7778 28.8333H36.2222C36.8558 28.8333 37.4634 28.5816 37.9114 28.1336C38.3595 27.6856 38.6111 27.078 38.6111 26.4444V2.55552C38.6111 1.92194 38.3595 1.31432 37.9114 0.866315C37.4634 0.418312 36.8558 0.166626 36.2222 0.166626V0.166626ZM34.3828 26.4444H4.76058L13.1217 17.7966L11.4017 16.1364L2.7778 25.0589V4.37107L17.6247 19.1463C18.0723 19.5913 18.6778 19.841 19.3089 19.841C19.94 19.841 20.5455 19.5913 20.9931 19.1463L36.2222 4.00079V24.9036L27.4311 16.1125L25.747 17.7966L34.3828 26.4444ZM4.34253 2.55552H34.2872L19.3089 17.4502L4.34253 2.55552Z" fill="#0A7DFF"/>
</svg>
