<svg width="40" height="38" fill="none" xmlns="http://www.w3.org/2000/svg"><path d="M21.8 35.75a1.35 1.35 0 1 0 0-2.7v2.7ZM2 30.8H.65 2ZM5.6 2V.65 2Zm28.8 0V.65 2Zm2.25 16.2a1.35 1.35 0 1 0 2.7 0h-2.7ZM2 7.85a1.35 1.35 0 0 0 0 2.7v-2.7Zm36 2.7a1.35 1.35 0 1 0 0-2.7v2.7ZM6.401 4.71A1.35 1.35 0 0 0 8.4 6.526L6.4 4.71Zm2.016 1.796A1.35 1.35 0 0 0 6.419 4.69l1.998 1.816ZM11.8 4.71A1.35 1.35 0 0 0 13.8 6.526L11.8 4.71Zm2.016 1.796a1.35 1.35 0 0 0-1.998-1.816l1.998 1.816ZM17.2 4.71A1.35 1.35 0 0 0 19.2 6.526L17.2 4.71Zm2.016 1.796a1.35 1.35 0 0 0-1.998-1.816l1.998 1.816Zm13.369 15.519.332-1.308-.332 1.308Zm4.6 1.168.335-1.308h-.002l-.333 1.308Zm.801 1.051 1.35.04-1.35-.04ZM31.7 36.2l-.347 1.305c.227.06.467.06.694 0L31.7 36.2Zm-6.287-11.956-1.35.032v.009l1.35-.04Zm.8-1.05.329 1.309.004-.001-.332-1.309Zm4.601-1.169-.332-1.308.332 1.308ZM21.8 33.05H5.6v2.7h16.2v-2.7Zm-16.2 0a2.25 2.25 0 0 1-1.591-.659l-1.91 1.91A4.95 4.95 0 0 0 5.6 35.75v-2.7Zm-1.591-.659A2.25 2.25 0 0 1 3.35 30.8H.65a4.95 4.95 0 0 0 1.45 3.5l1.909-1.909ZM3.35 30.8V5.6H.65v25.2h2.7Zm0-25.2c0-.597.237-1.169.659-1.591l-1.91-1.91A4.95 4.95 0 0 0 .65 5.6h2.7Zm.659-1.591A2.25 2.25 0 0 1 5.6 3.35V.65A4.95 4.95 0 0 0 2.1 2.1l1.909 1.909ZM5.6 3.35h28.8V.65H5.6v2.7Zm28.8 0a2.25 2.25 0 0 1 1.591.659l1.91-1.91A4.95 4.95 0 0 0 34.4.65v2.7Zm1.591.659c.422.422.659.994.659 1.591h2.7a4.95 4.95 0 0 0-1.45-3.5l-1.909 1.909ZM36.65 5.6v12.6h2.7V5.6h-2.7ZM2 10.55h36v-2.7H2v2.7Zm6.399-4.024.018-.02L6.419 4.69l-.018.02L8.4 6.526Zm5.4 0 .018-.02-1.998-1.816-.018.02L13.8 6.526Zm5.4 0 .018-.02-1.998-1.816-.018.02L19.2 6.526Zm13.054 16.808 4.601 1.168.665-2.617-4.601-1.169-.665 2.617Zm4.599 1.167a.29.29 0 0 1-.214-.296l2.699.079a2.41 2.41 0 0 0-1.816-2.399l-.669 2.616Zm-.214-.297c-.147 4.907-1.622 7.575-2.911 8.999a6.782 6.782 0 0 1-1.74 1.404 4.39 4.39 0 0 1-.635.288l-.015.005.003-.001.006-.002a.074.074 0 0 1 .005-.001s.002 0 .349 1.304c.347 1.305.348 1.304.35 1.304h.002l.005-.002.011-.003a1.744 1.744 0 0 0 .115-.035 4.79 4.79 0 0 0 .263-.094c.215-.084.505-.211.844-.398a9.477 9.477 0 0 0 2.438-1.957c1.778-1.963 3.446-5.273 3.609-10.73l-2.699-.08ZM31.7 36.2a90.448 90.448 0 0 1 .351-1.303h.003l.005.002h.005s-.006 0-.016-.004a4.39 4.39 0 0 1-.636-.288 6.782 6.782 0 0 1-1.739-1.404c-1.288-1.424-2.764-4.092-2.911-8.999l-2.699.08c.163 5.458 1.831 8.768 3.609 10.73a9.477 9.477 0 0 0 2.438 1.958c.34.187.629.314.844.398a4.79 4.79 0 0 0 .378.129l.011.003.005.001.003.001s.002 0 .349-1.304Zm-4.938-11.987a.291.291 0 0 1-.06.184l-2.147-1.637c-.331.435-.505.97-.492 1.516l2.7-.063Zm-.06.184a.292.292 0 0 1-.16.106l-.656-2.62c-.53.133-1 .443-1.33.877l2.147 1.637Zm-.156.105 4.6-1.168-.664-2.617-4.6 1.168.664 2.617Zm4.6-1.168a2.247 2.247 0 0 1 1.107 0l.665-2.617a4.949 4.949 0 0 0-2.436 0l.665 2.617Z" fill="#0A7DFF"/></svg>