<svg width="28" height="41" fill="none" xmlns="http://www.w3.org/2000/svg"><path d="M25.951 15.717h-1.024v-4.784c0-2.9-1.151-5.68-3.2-7.73a10.923 10.923 0 0 0-15.453 0 10.937 10.937 0 0 0-3.2 7.73v4.784H2.048A2.05 2.05 0 0 0 0 17.767V38.95A2.053 2.053 0 0 0 2.049 41H25.95A2.05 2.05 0 0 0 28 38.95V17.767a2.053 2.053 0 0 0-2.049-2.05ZM5.805 10.933c0-2.174.863-4.26 2.4-5.798a8.193 8.193 0 0 1 13.99 5.798v4.784H5.805v-4.784Zm19.463 27.334H2.732V18.45h22.536v19.817Z" fill="#0A7DFF"/><path d="M12.293 26.65h3.414v3.417h-3.414V26.65Z" fill="#0A7DFF"/></svg>