<svg width="410" height="410" viewBox="0 0 410 410" fill="none" xmlns="http://www.w3.org/2000/svg">
<path d="M34.2009 205.034C34.2105 245.715 48.7298 285.058 75.149 315.993C101.568 346.928 138.155 367.425 178.333 373.8V254.405H134.993V205.034H178.384V167.451C177.426 158.654 178.417 149.755 181.285 141.384C184.154 133.014 188.831 125.378 194.983 119.018C201.135 112.659 208.613 107.732 216.884 104.588C225.155 101.444 234.016 100.159 242.84 100.826C255.652 101.031 268.465 102.175 281.106 104.242V146.25H259.513C255.843 145.77 252.112 146.12 248.595 147.275C245.079 148.43 241.867 150.361 239.197 152.924C236.527 155.488 234.467 158.618 233.17 162.085C231.872 165.551 231.37 169.265 231.701 172.952V205.034H279.039L271.471 254.422H231.701V373.8C263.948 368.704 294.059 354.475 318.47 332.796C342.881 311.118 360.569 282.899 369.44 251.481C378.311 220.062 377.993 186.759 368.525 155.515C359.056 124.271 340.834 96.3949 316.014 75.1862C291.194 53.9774 260.817 40.3247 228.479 35.8443C196.141 31.3639 163.196 36.2436 133.545 49.9056C103.894 63.5676 78.7784 85.4397 61.1722 112.932C43.5659 140.425 34.2061 172.387 34.2009 205.034V205.034Z" fill="#BBBBBB"/>
</svg>
