<svg width="993" height="381" viewBox="0 0 993 381" fill="none" xmlns="http://www.w3.org/2000/svg">
<mask id="mask0_95_10" style="mask-type:alpha" maskUnits="userSpaceOnUse" x="0" y="0" width="993" height="381">
<rect width="993" height="381" fill="#3E34AD"/>
</mask>
<g mask="url(#mask0_95_10)">
<path d="M188 341.5C84.2101 382.366 -76 382 -103.5 315.5L-66.5 223.329C-71.5 205.605 -47.5 232.577 -35.5 201.135C-20.5 161.833 -35.5 178.479 -25 159.059C-14.5 139.639 -25 110.047 -25 88.7772C-25 67.5078 -44.5 27.2804 -50.5 -5.08607C-56.5 -37.4526 -59.5 -35.603 46.5 -80.4537C118 -115.594 75 -105.885 119 -135.014C163 -164.144 181 -174.317 213 -174.317C245 -174.317 857 -210.661 884.5 -206.5C912 -202.338 1084.63 -99.9794 1014 36C976.667 107.87 952 216 659.5 173C430.5 139.335 289.676 301.466 188 341.5Z" fill="#F7FBFF"/>
</g>
</svg>
    