<?xml version="1.0" encoding="UTF-8" standalone="no"?>
<!-- Created with Inkscape (http://www.inkscape.org/) -->

<svg
   width="275.918mm"
   height="57.80088mm"
   viewBox="0 0 275.91798 57.80088"
   version="1.1"
   id="svg7412"
   inkscape:version="1.2.2 (732a01da63, 2022-12-09)"
   sodipodi:docname="logo-main.svg"
   xmlns:inkscape="http://www.inkscape.org/namespaces/inkscape"
   xmlns:sodipodi="http://sodipodi.sourceforge.net/DTD/sodipodi-0.dtd"
   xmlns="http://www.w3.org/2000/svg"
   xmlns:svg="http://www.w3.org/2000/svg">
  <sodipodi:namedview
     id="namedview7414"
     pagecolor="#ffffff"
     bordercolor="#666666"
     borderopacity="1.0"
     inkscape:showpageshadow="2"
     inkscape:pageopacity="0.0"
     inkscape:pagecheckerboard="0"
     inkscape:deskcolor="#d1d1d1"
     inkscape:document-units="mm"
     showgrid="false"
     inkscape:zoom="1.3948186"
     inkscape:cx="421.20172"
     inkscape:cy="85.315754"
     inkscape:window-width="3840"
     inkscape:window-height="2054"
     inkscape:window-x="-11"
     inkscape:window-y="-11"
     inkscape:window-maximized="1"
     inkscape:current-layer="layer1" />
  <defs
     id="defs7409" />
  <g
     inkscape:label="Layer 1"
     inkscape:groupmode="layer"
     id="layer1"
     transform="translate(-45.942711,-79.083181)">
    <path
       id="rect715"
       style="clip-rule:evenodd;fill:#be9662;fill-opacity:1;fill-rule:evenodd;stroke:none;stroke-width:0.0934633;stroke-linecap:square;paint-order:fill markers stroke;image-rendering:optimizeQuality;shape-rendering:geometricPrecision;text-rendering:geometricPrecision"
       d="m 68.369511,79.083181 c -1.898517,4.51636 1.347152,7.535022 4.457728,11.100726 7.104342,8.476736 11.164568,12.255933 11.164568,17.404533 0,4.78099 -8.889624,18.29503 -11.383241,22.45871 H 89.886377 V 85.906742 H 74.07018 c -2.930087,-1.805314 -5.573724,-3.91382 -5.700669,-6.823561 z m -22.4268,6.8369 v 44.140409 h 15.816196 c 2.930078,1.80532 5.573724,3.91383 5.700669,6.82357 1.898517,-4.51636 -1.347161,-7.53503 -4.457728,-11.10073 -7.104341,-8.47673 -11.164567,-12.25594 -11.164567,-17.40453 0,-4.78099 8.889623,-18.295029 11.383241,-22.458719 z m 17.608428,2.324386 c -4.920257,5.169382 0.715602,9.605823 6.20948,16.399793 1.756832,2.18383 0.755049,8.31794 -3.304357,13.18643 3.702993,3.90889 5.344828,4.66025 5.811204,10.02357 4.948072,-8.10634 9.131039,-14.51847 4.357683,-20.8699 -4.489302,-6.45984 -14.846688,-14.001467 -13.07401,-18.739893 z m -6.295223,10.362771 c -0.876406,1.575112 -1.701113,3.128182 -1.379667,4.850282 0.808011,4.32884 5.731099,8.59701 9.757261,13.59853 0,0 1.201862,-2.66549 0.446399,-4.22287 -2.052603,-4.23136 -8.088452,-8.2719 -8.823993,-14.225942 z" />
    <path
       id="path420"
       style="font-weight:bold;font-size:30.7893px;font-family:Philosopher;clip-rule:evenodd;fill:#be9662;fill-rule:evenodd;stroke-width:0.00921892;image-rendering:optimizeQuality;shape-rendering:geometricPrecision;text-rendering:geometricPrecision"
       d="m 95.80335,85.528952 v 0.851814 h 0.283936 c 0.851542,0 1.390799,0.264796 1.617873,0.794645 0.246,0.510924 0.369212,1.192241 0.369212,2.043781 v 15.043938 h 3.689759 v -7.579135 h 2.69694 c 0.34062,0 0.78516,-0.02803 1.33393,-0.0848 0.5677,-0.07569 1.16349,-0.217753 1.78796,-0.425907 0.62446,-0.208154 1.21107,-0.51112 1.75984,-0.908506 0.56769,-0.397386 1.03156,-0.917796 1.3911,-1.561182 0.35955,-0.662309 0.5393,-1.485209 0.5393,-2.469211 0,-1.040772 -0.17975,-1.901841 -0.5393,-2.583072 -0.35954,-0.700156 -0.83259,-1.258259 -1.41921,-1.674567 -0.58661,-0.416309 -1.23024,-0.72846 -1.93039,-0.936614 -0.68123,-0.208154 -1.35289,-0.341028 -2.0152,-0.397799 -0.66231,-0.07569 -1.24893,-0.113385 -1.75984,-0.113385 z m 7.80591,1.135275 c 0.60553,0 1.18296,0.132876 1.73173,0.397799 0.56769,0.246 1.03109,0.690549 1.39063,1.333936 0.37846,0.624463 0.56787,1.523224 0.56787,2.696457 0,1.173233 -0.18941,2.081656 -0.56787,2.725042 -0.35954,0.643385 -0.8326,1.097596 -1.41922,1.36252 -0.58661,0.246 -1.20172,0.368739 -1.84512,0.368739 h -1.70315 v -8.685832 l 0.56788,-0.0848 c 0.17031,-0.03784 0.36891,-0.06635 0.59599,-0.08528 0.22707,-0.01893 0.45417,-0.02859 0.68126,-0.02859 z m 14.70331,3.974178 c -0.92723,0 -1.78829,0.07538 -2.58307,0.226768 -0.77585,0.132463 -1.33396,0.388076 -1.67457,0.766537 -0.34062,0.378463 -0.54888,0.823013 -0.62457,1.333937 -0.0568,0.510924 -0.0853,1.012488 -0.0853,1.504489 h 1.56119 c 0.22708,-1.059694 0.59624,-1.750196 1.10716,-2.071888 0.51093,-0.321693 1.08787,-0.482599 1.73126,-0.482599 0.85154,0 1.51401,0.330996 1.98709,0.993305 0.47308,0.66231 0.70985,1.845191 0.70985,3.548271 h -0.42591 c -2.02478,0 -3.59567,0.170091 -4.71213,0.510707 -1.11646,0.321694 -1.89201,0.804412 -2.32724,1.447797 -0.41631,0.624463 -0.62457,1.390825 -0.62457,2.299131 0,1.13539 0.40685,2.06266 1.22055,2.78173 0.83261,0.70016 2.03434,1.05 3.60497,1.05 0.60554,0 1.12594,-0.0754 1.56117,-0.22677 0.43523,-0.15138 0.78508,-0.33113 1.05,-0.53928 0.15139,-0.11355 0.29345,-0.23676 0.42591,-0.36923 0.15139,-0.13246 0.2746,-0.27451 0.36921,-0.4259 h 0.1415 l 0.99378,1.27772 h 2.41252 v -7.663936 c 0,-2.00585 -0.51075,-3.500882 -1.5326,-4.484884 -1.00293,-0.984003 -2.43176,-1.475905 -4.28622,-1.475905 z m 6.50008,0 v 0.567399 c 1.13539,0.151385 2.0153,0.908562 2.63976,2.271026 l 5.10898,11.18362 -0.59598,1.5326 c -0.41631,1.07862 -0.95556,1.80729 -1.61787,2.18575 -0.66232,0.37846 -1.48522,0.5674 -2.46922,0.5674 v 0.99378 h 1.13528 c 0.6623,0 1.2581,-0.10437 1.78794,-0.31252 0.52986,-0.20815 1.01257,-0.59569 1.4478,-1.16338 0.45416,-0.54877 0.87068,-1.33446 1.24914,-2.35631 l 5.73354,-15.185428 h -1.50449 l -3.46299,9.139848 -3.26433,-7.153236 c -0.32169,-0.700154 -0.80393,-1.248596 -1.44733,-1.645981 -0.64337,-0.41631 -1.3909,-0.624568 -2.24244,-0.624568 z m 40.30631,0 c -1.15431,0 -2.05354,0.141583 -2.69693,0.42543 -0.62447,0.283847 -1.10671,0.586813 -1.44732,0.908506 -0.20816,-0.378463 -0.50146,-0.643261 -0.87992,-0.794645 -0.35954,-0.170308 -0.8611,-0.255354 -1.50449,-0.255354 h -2.81032 v 0.851337 h 0.28393 c 0.85155,0 1.3908,0.264797 1.61789,0.794646 0.22707,0.510924 0.34062,1.19224 0.34062,2.043781 v 9.651024 h 3.69024 v -9.821101 c 0,-0.227078 -0.01,-0.435337 -0.0286,-0.624568 -0.0189,-0.189232 -0.0469,-0.350138 -0.0848,-0.482599 l -0.0853,-0.397323 c 0.246,-0.246 0.58667,-0.45426 1.0219,-0.624568 0.45415,-0.170309 0.98375,-0.255353 1.58928,-0.255353 0.77585,0 1.41948,0.283643 1.9304,0.851336 0.51092,0.567694 0.76606,1.542316 0.76606,2.923703 v 8.430473 h 3.69024 v -8.401888 c 0,-1.835542 -0.45421,-3.160484 -1.36252,-3.974178 -0.90831,-0.832617 -2.25163,-1.248659 -4.0304,-1.248659 z m 14.30552,0 c -1.13539,0 -2.16656,0.141583 -3.09378,0.42543 -0.90831,0.283847 -1.63698,0.747718 -2.18575,1.391105 -0.54877,0.643386 -0.82323,1.51364 -0.82323,2.61118 0,0.870464 0.27446,1.656148 0.82323,2.356304 0.54877,0.681232 1.2209,1.163474 2.01567,1.447321 -0.75693,0.302769 -1.13575,0.775826 -1.13575,1.419215 0,0.43523 0.12322,0.77589 0.36922,1.02189 0.246,0.24601 0.54848,0.42575 0.90803,0.53929 -0.60555,0.15139 -1.20133,0.38816 -1.78796,0.70985 -0.58661,0.32168 -1.07852,0.72854 -1.4759,1.22055 -0.37847,0.492 -0.56788,1.0786 -0.56788,1.75983 0,1.09754 0.30296,1.9678 0.90851,2.61119 0.60554,0.64337 1.42844,1.09759 2.46921,1.36251 1.0597,0.28385 2.25176,0.42591 3.57638,0.42591 1.32461,0 2.50749,-0.14206 3.54827,-0.42591 1.05969,-0.26492 1.89225,-0.71914 2.4978,-1.36251 0.60554,-0.64339 0.9085,-1.51365 0.9085,-2.61119 0,-1.00292 -0.31262,-1.82629 -0.93709,-2.46968 -0.62446,-0.66231 -1.4662,-1.15421 -2.5259,-1.47591 -1.04077,-0.3406 -2.20481,-0.52035 -3.49158,-0.53929 -0.85155,-0.0189 -1.54204,-0.0663 -2.07189,-0.14196 -0.51092,-0.0946 -0.76654,-0.30288 -0.76654,-0.62457 0,-0.378465 0.25562,-0.614755 0.76654,-0.709371 0.52985,-0.09461 1.22034,-0.141969 2.07189,-0.141969 1.23001,0 2.29933,-0.132398 3.20764,-0.397323 0.92723,-0.283846 1.63706,-0.747719 2.12906,-1.391105 0.51092,-0.643386 0.76605,-1.504455 0.76605,-2.583072 0,-0.662309 -0.25513,-1.305457 -0.76605,-1.92992 -0.492,-0.624463 -1.13563,-1.088335 -1.9304,-1.391105 l 2.55449,-0.34063 v -0.76606 z m -39.9938,0.283937 v 0.851337 h 0.28395 c 0.85154,0 1.39079,0.264797 1.61787,0.794646 0.246,0.510924 0.36873,1.19224 0.36873,2.043781 v 4.711653 c 0,1.835551 0.42619,3.169671 1.27773,4.002281 0.87046,0.8137 2.19493,1.22055 3.9737,1.22055 0.56769,0 1.06926,-0.0754 1.50449,-0.22677 0.43523,-0.15138 0.80392,-0.33113 1.10669,-0.53928 0.35953,-0.24601 0.67216,-0.51128 0.93709,-0.79513 h 0.14149 l 0.99379,1.27772 h 2.41251 V 90.922342 h -3.68976 v 10.501888 c -0.0946,0.18923 -0.19899,0.35979 -0.31253,0.51119 -0.0946,0.15137 -0.20816,0.29344 -0.34062,0.42591 -0.20816,0.22707 -0.47296,0.43485 -0.79465,0.62408 -0.30276,0.18923 -0.67194,0.28394 -1.10717,0.28394 -0.77584,0 -1.37163,-0.28364 -1.78794,-0.85134 -0.41631,-0.58661 -0.62457,-1.60859 -0.62457,-3.065666 v -4.740238 c 0,-1.400311 -0.17976,-2.365272 -0.5393,-2.895119 -0.34061,-0.529847 -1.01226,-0.794645 -2.01519,-0.794645 z m 39.9938,0.851337 c 0.66231,0 1.20157,0.283644 1.61787,0.851338 0.43523,0.54877 0.65316,1.362486 0.65316,2.441103 0,1.173234 -0.21793,2.005795 -0.65316,2.497796 -0.4163,0.492001 -0.95556,0.738429 -1.61787,0.738429 -0.66231,0 -1.21075,-0.246428 -1.64599,-0.738429 -0.4163,-0.492001 -0.62457,-1.324562 -0.62457,-2.497796 0,-1.154309 0.20827,-1.986871 0.62457,-2.497795 0.43524,-0.529849 0.98368,-0.794646 1.64599,-0.794646 z m -59.40876,5.96079 h 0.42591 v 3.548271 c -0.13247,0.35953 -0.32188,0.67169 -0.56788,0.93661 -0.20815,0.22708 -0.46376,0.43533 -0.76654,0.62457 -0.28384,0.18923 -0.64335,0.28346 -1.07858,0.28346 -0.56769,0 -1.0219,-0.1986 -1.36252,-0.59598 -0.3217,-0.4163 -0.4826,-1.02176 -0.4826,-1.81654 0,-1.002921 0.29331,-1.750437 0.87992,-2.242438 0.60554,-0.492001 1.58982,-0.737953 2.95229,-0.737953 z m 58.30207,4.484881 1.33393,0.14198 c 0.87046,0.1703 1.57063,0.5298 2.10047,1.07857 0.52986,0.54877 0.79466,1.24893 0.79466,2.10047 0,1.07863 -0.28365,1.86383 -0.85134,2.35583 -0.56769,0.51093 -1.32487,0.76654 -2.27103,0.76654 -0.94615,0 -1.70286,-0.25561 -2.27056,-0.76654 -0.56768,-0.492 -0.8518,-1.2772 -0.8518,-2.35583 0,-0.90831 0.17975,-1.61813 0.53929,-2.12906 0.35954,-0.52984 0.85191,-0.92703 1.47638,-1.19196 z" />
    <path
       id="path440"
       style="font-weight:bold;font-size:30.7893px;font-family:Philosopher;clip-rule:evenodd;fill:#be9662;fill-rule:evenodd;stroke-width:0.00921892;image-rendering:optimizeQuality;shape-rendering:geometricPrecision;text-rendering:geometricPrecision"
       d="m 97.47839,111.31346 v 18.73371 h 1.419212 V 114.6059 l 7.606778,15.44127 h 0.93708 l 6.21615,-14.87339 v 10.04787 c 0,2.13832 0.44455,3.68988 1.33393,4.65497 0.88939,0.96507 2.36557,1.44779 4.4282,1.44779 v -0.70937 c -0.79477,-0.15138 -1.34369,-0.65294 -1.64646,-1.50449 -0.28385,-0.87046 -0.42591,-2.16689 -0.42591,-3.8889 v -13.90819 h -3.71834 l -5.81883,13.93678 -6.86882,-13.93678 z m 44.22332,0 v 0.85134 h 0.28346 c 0.85154,0 1.3908,0.26479 1.61788,0.79464 0.246,0.51093 0.36921,1.19224 0.36921,2.04378 v 2.27103 c -0.246,-0.15138 -0.51079,-0.29344 -0.79464,-0.42591 -0.26493,-0.0946 -0.58673,-0.18932 -0.9652,-0.28393 -0.35953,-0.0946 -0.7664,-0.14198 -1.22055,-0.14198 -1.36246,0 -2.498,0.31216 -3.4063,0.93662 -0.90831,0.60554 -1.58964,1.4381 -2.04378,2.4978 -0.43524,1.04077 -0.65268,2.21399 -0.65268,3.51968 0,1.28677 0.21744,2.45999 0.65268,3.51969 0.45414,1.05969 1.11662,1.90191 1.98708,2.52638 0.88939,0.60554 1.99641,0.90851 3.32103,0.90851 0.56769,0 1.05042,-0.0759 1.44779,-0.22725 0.41632,-0.15138 0.75698,-0.33114 1.02189,-0.5393 0.15139,-0.11353 0.29298,-0.23627 0.42543,-0.36873 0.15139,-0.13247 0.2746,-0.27452 0.36922,-0.42591 h 0.14197 l 0.9933,1.27725 h 2.41301 v -15.04395 c 0,-1.40031 -0.18024,-2.36527 -0.53978,-2.89511 -0.3406,-0.52985 -1.01226,-0.79465 -2.01519,-0.79465 z m 45.07466,0 v 0.85134 h 0.28394 c 0.85154,0 1.3908,0.26479 1.61787,0.79464 0.246,0.51093 0.36874,1.19224 0.36874,2.04378 v 15.04395 h 3.69025 v -11.21221 c 0.20814,-0.18923 0.42559,-0.34966 0.65267,-0.48213 0.20816,-0.13246 0.44492,-0.24601 0.70984,-0.34062 0.28385,-0.11355 0.58634,-0.17056 0.90803,-0.17056 0.66231,0 1.24893,0.29331 1.75985,0.87992 0.52984,0.5677 0.79464,1.58 0.79464,3.03709 v 8.28851 h 3.69024 v -8.43048 c 0,-1.04077 -0.16091,-1.89218 -0.4826,-2.55448 -0.30277,-0.68124 -0.71881,-1.21083 -1.24866,-1.5893 -0.52984,-0.39738 -1.11646,-0.67184 -1.75984,-0.82323 -0.62446,-0.15138 -1.25843,-0.22725 -1.90181,-0.22725 -0.47308,0 -0.89926,0.057 -1.27772,0.17056 -0.37846,0.11354 -0.6998,0.23628 -0.96472,0.36874 -0.15139,0.0757 -0.30312,0.16073 -0.45449,0.25535 -0.1514,0.0946 -0.29298,0.18933 -0.42543,0.28394 v -2.4978 c 0,-1.40031 -0.17975,-2.36527 -0.5393,-2.89511 -0.34061,-0.52985 -1.01274,-0.79465 -2.01567,-0.79465 z m -33.8915,0.11338 c -0.43523,0 -0.80393,0.14207 -1.1067,0.42591 -0.30277,0.28385 -0.45449,0.67139 -0.45449,1.16339 0,0.56769 0.17056,1.06924 0.51119,1.50448 0.35953,0.43523 0.89879,0.65316 1.61787,0.65316 0.43523,0 0.8044,-0.14206 1.10717,-0.42591 0.30277,-0.28385 0.45401,-0.67186 0.45401,-1.16386 0,-0.56769 -0.17975,-1.06926 -0.53929,-1.50449 -0.34061,-0.43524 -0.87069,-0.65268 -1.58976,-0.65268 z m -26.34096,4.99559 c -0.92724,0 -1.78783,0.0759 -2.5826,0.22725 -0.77584,0.13246 -1.33442,0.3876 -1.67504,0.76606 -0.34061,0.37846 -0.5484,0.82349 -0.62409,1.33441 -0.0568,0.51093 -0.0853,1.01249 -0.0853,1.5045 h 1.56118 c 0.22707,-1.0597 0.59576,-1.75067 1.1067,-2.07237 0.51091,-0.32169 1.08835,-0.4826 1.73172,-0.4826 0.85155,0 1.51355,0.33148 1.98662,0.99378 0.47308,0.66232 0.70985,1.84472 0.70985,3.54779 h -0.42591 c -2.02478,0 -3.59519,0.17058 -4.71166,0.51119 -1.11646,0.3217 -1.89249,0.80393 -2.32772,1.44732 -0.4163,0.62447 -0.62457,1.39083 -0.62457,2.29914 0,1.13539 0.40687,2.06265 1.22055,2.78173 0.83262,0.70016 2.03435,1.05048 3.60497,1.05048 0.60553,0 1.12595,-0.0759 1.56119,-0.22725 0.43523,-0.15138 0.78555,-0.33114 1.05047,-0.5393 0.15139,-0.11353 0.29297,-0.23627 0.42543,-0.36873 0.15139,-0.13247 0.2746,-0.27452 0.36922,-0.42591 h 0.14196 l 0.9933,1.27725 h 2.41301 v -7.66394 c 0,-2.00585 -0.51122,-3.50088 -1.53308,-4.48489 -1.00293,-0.984 -2.43176,-1.47591 -4.28622,-1.47591 z m 39.76702,0 c -1.1543,0 -2.05307,0.14207 -2.69646,0.42591 -0.62446,0.28385 -1.10718,0.58634 -1.44779,0.90803 -0.20816,-0.37846 -0.50147,-0.64326 -0.87993,-0.79464 -0.35954,-0.17032 -0.8611,-0.25535 -1.50448,-0.25535 h -2.80985 v 0.85133 h 0.28395 c 0.85153,0 1.39079,0.26528 1.61787,0.79512 0.22707,0.51093 0.34062,1.19177 0.34062,2.04331 v 9.65103 h 3.68977 v -9.82111 c 0,-0.22707 -0.009,-0.43533 -0.0281,-0.62457 -0.0189,-0.18923 -0.0474,-0.35013 -0.0853,-0.4826 l -0.0853,-0.39732 c 0.246,-0.246 0.58666,-0.45426 1.02189,-0.62457 0.45415,-0.1703 0.98423,-0.25535 1.58976,-0.25535 0.77586,0 1.419,0.28412 1.92993,0.85181 0.51092,0.5677 0.76653,1.54184 0.76653,2.92323 v 8.43048 h 3.68977 v -8.4019 c 0,-1.83554 -0.45422,-3.16 -1.36253,-3.9737 -0.9083,-0.83261 -2.25161,-1.24914 -4.03039,-1.24914 z m 13.73812,0 c -0.92723,0 -1.78831,0.0759 -2.58308,0.22725 -0.77584,0.13246 -1.33395,0.3876 -1.67456,0.76606 -0.34062,0.37846 -0.54888,0.82349 -0.62457,1.33441 -0.0568,0.51093 -0.0853,1.01249 -0.0853,1.5045 h 1.56119 c 0.22707,-1.0597 0.59624,-1.75067 1.10717,-2.07237 0.51091,-0.32169 1.08834,-0.4826 1.73172,-0.4826 0.85155,0 1.51354,0.33148 1.98662,0.99378 0.47307,0.66232 0.70984,1.84472 0.70984,3.54779 h -0.42591 c -2.02476,0 -3.59518,0.17058 -4.71165,0.51119 -1.11646,0.3217 -1.89249,0.80393 -2.32772,1.44732 -0.41631,0.62447 -0.62456,1.39083 -0.62456,2.29914 0,1.13539 0.40685,2.06265 1.22055,2.78173 0.83262,0.70016 2.03434,1.05048 3.60496,1.05048 0.60554,0 1.12595,-0.0759 1.56119,-0.22725 0.43523,-0.15138 0.78507,-0.33114 1.05,-0.5393 0.15137,-0.11353 0.29344,-0.23627 0.4259,-0.36873 0.15138,-0.13247 0.27459,-0.27452 0.36922,-0.42591 h 0.14196 l 0.99331,1.27725 h 2.41252 v -7.66394 c 0,-2.00585 -0.51075,-3.50088 -1.5326,-4.48489 -1.00293,-0.984 -2.43175,-1.47591 -4.28622,-1.47591 z m -30.71198,0.28395 v 0.85133 h 0.28393 c 0.85155,0 1.3908,0.26528 1.61788,0.79512 0.246,0.51093 0.36874,1.19177 0.36874,2.04331 v 9.65103 h 3.69024 v -9.65103 c 0,-1.40031 -0.17975,-2.36527 -0.53929,-2.89512 -0.34062,-0.52984 -1.01275,-0.79464 -2.01568,-0.79464 z m -7.77733,0.9933 c 0.35954,0 0.68088,0.0474 0.96472,0.14197 0.30277,0.0946 0.55838,0.18932 0.76655,0.28394 0.26491,0.13246 0.49202,0.27452 0.68125,0.4259 v 8.65726 c -0.0946,0.18923 -0.19851,0.35932 -0.31204,0.5107 -0.0946,0.15139 -0.20818,0.29344 -0.34064,0.4259 -0.20815,0.22708 -0.47343,0.43534 -0.79512,0.62457 -0.30277,0.18923 -0.67145,0.28394 -1.10668,0.28394 -0.66231,0 -1.19238,-0.24595 -1.58977,-0.73795 -0.39738,-0.492 -0.68103,-1.16414 -0.85134,-2.01567 -0.1703,-0.87047 -0.25536,-1.84509 -0.25536,-2.92371 0,-1.09754 0.0851,-2.07168 0.25536,-2.92322 0.18923,-0.85154 0.49173,-1.52367 0.90803,-2.01567 0.41631,-0.492 0.97489,-0.73796 1.67504,-0.73796 z m -13.31268,5.81882 h 0.42591 v 3.54827 c -0.13247,0.35954 -0.32188,0.67169 -0.56788,0.93662 -0.20815,0.22707 -0.46329,0.43534 -0.76606,0.62457 -0.28384,0.18923 -0.64336,0.28393 -1.07859,0.28393 -0.56769,0 -1.0219,-0.1986 -1.36251,-0.59598 -0.3217,-0.41631 -0.4826,-1.02224 -0.4826,-1.81701 0,-1.00293 0.2933,-1.75044 0.87992,-2.24244 0.60554,-0.492 1.58935,-0.73796 2.95181,-0.73796 z m 53.50513,0 h 0.42591 v 3.54827 c -0.13245,0.35954 -0.32187,0.67169 -0.56787,0.93662 -0.20816,0.22707 -0.46377,0.43534 -0.76654,0.62457 -0.28385,0.18923 -0.64334,0.28393 -1.07858,0.28393 -0.5677,0 -1.02191,-0.1986 -1.36252,-0.59598 -0.32169,-0.41631 -0.48212,-1.02224 -0.48212,-1.81701 0,-1.00293 0.2933,-1.75044 0.87992,-2.24244 0.60554,-0.492 1.58934,-0.73796 2.9518,-0.73796 z" />
    <rect
       style="fill:#808080;stroke:#b3b3b3;stroke-width:0.199371;stroke-dasharray:0.199371, 0.59811;stop-color:#000000"
       id="rect343"
       width="0.30050483"
       height="57.113728"
       x="214.7693"
       y="79.809273" />
    <path
       id="path6945"
       style="font-weight:600;font-size:16.6024px;line-height:1.15;font-family:'Proxima Nova';-inkscape-font-specification:'Proxima Nova Semi-Bold';letter-spacing:0px;word-spacing:0px;fill:#808080;stroke:#b3b3b3;stroke-width:0.184913;stroke-dasharray:0.184913, 0.554741"
       d="m 233.50181,94.017593 c -2.28578,0 -3.80441,1.330825 -3.80441,3.052991 0,3.851396 6.09039,2.489246 6.09039,4.681096 0,0.68886 -0.5949,1.42488 -2.09787,1.42488 -1.45601,0 -2.58329,-0.67333 -3.30347,-1.44048 l -1.0175,1.4093 c 0.9237,0.98633 2.31682,1.65928 4.24251,1.65928 2.81809,0 4.03931,-1.48719 4.03931,-3.225 0,-3.898367 -6.07431,-2.692963 -6.07431,-4.634314 0,-0.782803 0.68866,-1.299654 1.76893,-1.299654 1.09592,0 2.20769,0.375894 3.0218,1.190009 l 1.0487,-1.362028 c -0.97067,-0.939363 -2.28585,-1.45608 -3.91408,-1.45608 z m 32.15753,0.07846 c -0.54796,0 -1.0175,0.453883 -1.0175,1.017501 0,0.563618 0.46954,1.017501 1.0175,1.017501 0.56362,0 1.01799,-0.453883 1.01799,-1.017501 0,-0.563618 -0.45437,-1.017501 -1.01799,-1.017501 z m 15.93793,0 c -0.54796,0 -1.0175,0.453883 -1.0175,1.017501 0,0.563618 0.46954,1.017501 1.0175,1.017501 0.56362,0 1.0175,-0.453883 1.0175,-1.017501 0,-0.563618 -0.45388,-1.017501 -1.0175,-1.017501 z m -4.58704,0.07797 v 10.443027 h 1.64369 V 94.174019 Z m 15.26447,0.814293 v 2.066678 h -1.25239 v 1.440485 h 1.25239 v 4.367741 c 0,1.2525 0.67329,1.94144 1.94144,1.94144 0.76714,0 1.25267,-0.20354 1.55013,-0.48535 l -0.3918,-1.23679 c -0.12525,0.1409 -0.42272,0.26606 -0.73584,0.26606 -0.46968,0 -0.71975,-0.3756 -0.71975,-0.89225 v -3.960851 h 1.53405 V 97.05499 h -1.53405 v -2.066678 z m -48.90926,1.878577 c -0.98633,0 -1.86318,0.469706 -2.42681,1.221196 V 97.05499 h -1.64368 v 10.44254 h 1.64368 v -3.92965 c 0.6106,0.81412 1.47179,1.23678 2.42681,1.23678 1.95701,0 3.35025,-1.48713 3.35025,-3.97643 0,-2.489317 -1.39324,-3.961341 -3.35025,-3.961341 z m 8.34467,0 c -2.2388,0 -3.83609,1.769488 -3.83609,3.961337 0,2.39537 1.6912,3.97643 3.96133,3.97643 1.20552,0 2.3171,-0.37577 3.06859,-1.09595 l -0.75143,-1.08037 c -0.5323,0.5323 -1.4093,0.82989 -2.14513,0.82989 -1.42471,0 -2.28597,-0.93938 -2.41121,-2.08227 h 5.83991 v -0.39131 c 0,-2.379721 -1.45583,-4.117757 -3.72597,-4.117757 z m 8.79837,0 c -2.30143,0 -3.91407,1.675552 -3.91407,3.961337 0,2.30143 1.61264,3.97643 3.91407,3.97643 1.47167,0 2.36426,-0.62625 2.89657,-1.34643 l -1.08037,-1.0019 c -0.42271,0.57927 -1.00191,0.89225 -1.73774,0.89225 -1.37775,0 -2.28597,-1.04868 -2.28597,-2.52035 0,-1.471669 0.90822,-2.505257 2.28597,-2.505257 0.73583,0 1.31503,0.297819 1.73774,0.89275 l 1.08037,-1.002395 c -0.53231,-0.720179 -1.4249,-1.346435 -2.89657,-1.346435 z m 11.22566,0 c -1.20553,0 -2.3015,0.391425 -3.17824,1.221196 l 0.67298,1.143227 c 0.65755,-0.641898 1.39375,-0.955126 2.23918,-0.955126 1.04896,0 1.76894,0.532072 1.76894,1.408811 v 1.127629 c -0.54797,-0.6419 -1.42475,-0.970716 -2.4424,-0.970716 -1.23682,0 -2.63,0.720156 -2.63,2.457986 0,1.67519 1.39318,2.50476 2.63,2.50476 1.00199,0 1.87878,-0.36 2.4424,-1.0019 v 0.81429 h 1.64368 v -5.010018 c 0,-2.035288 -1.47136,-2.740139 -3.14654,-2.740139 z m 15.3741,0 c -1.91003,0 -2.97453,1.064732 -2.97453,2.301561 0,2.896366 4.57145,1.831726 4.57145,3.319056 0,0.59493 -0.50094,1.0175 -1.48727,1.0175 -0.98633,0 -2.03533,-0.51632 -2.56763,-1.06428 l -0.75143,1.19001 c 0.7828,0.76715 1.95681,1.17392 3.24061,1.17392 2.03528,0 3.14704,-1.01757 3.14704,-2.34833 0,-3.005964 -4.57145,-2.00384 -4.57145,-3.350252 0,-0.532306 0.54772,-0.923938 1.40881,-0.923938 0.93936,0 1.78468,0.391694 2.2387,0.908344 l 0.68905,-1.158821 c -0.68887,-0.610585 -1.65955,-1.06477 -2.94335,-1.06477 z m -22.2627,0.188101 v 7.562056 h 1.64368 v -7.562056 z m 15.93792,0 v 7.562056 h 1.6437 v -7.562056 z m -29.07335,1.158334 c 1.48733,0 2.09775,1.111906 2.12906,2.004302 h -4.2586 c 0.0783,-0.923708 0.72049,-2.004302 2.12954,-2.004302 z m -8.83004,0.109645 c 1.29946,0 2.12906,1.049243 2.12906,2.505257 0,1.47167 -0.8296,2.52035 -2.12906,2.52035 -0.76715,0 -1.58134,-0.46953 -1.94144,-1.01749 v -2.990129 c 0.3601,-0.563618 1.17429,-1.017988 1.94144,-1.017988 z m 28.55631,2.646077 c 0.72018,0 1.42487,0.26598 1.80062,0.78263 v 1.14322 c -0.37575,0.51665 -1.08044,0.78262 -1.80062,0.78262 -0.9237,0 -1.6125,-0.53231 -1.6125,-1.34643 0,-0.82978 0.6888,-1.36204 1.6125,-1.36204 z m -41.39446,11.20957 v 6.32527 c 0,2.5676 1.48739,4.30539 4.52466,4.30539 3.02162,0 4.50907,-1.72207 4.50907,-4.32097 v -6.30969 h -1.84738 v 6.26241 c 0,1.65955 -0.92387,2.74015 -2.66169,2.74015 -1.75347,0 -2.67727,-1.0806 -2.67727,-2.74015 v -6.26241 z m 38.65481,0 v 10.44255 h 1.64419 v -5.27609 c 0.3914,-0.51665 1.11118,-1.01751 1.94095,-1.01751 0.92371,0 1.53454,0.36034 1.53454,1.53454 v 4.75906 h 1.64369 v -5.35407 c 0,-1.54994 -0.81417,-2.39561 -2.4424,-2.39561 -1.18986,0 -2.17578,0.62627 -2.67678,1.2212 v -3.91407 z m 12.9634,0 v 10.44255 h 1.8318 v -3.89798 h 2.75524 c 2.17619,0 3.41312,-1.50315 3.41312,-3.27229 0,-1.76912 -1.22128,-3.27228 -3.41312,-3.27228 z m 9.47183,0 v 10.44255 h 1.64369 v -10.44255 z m 23.90689,0 0.29726,7.24873 h 1.42489 l 0.28166,-7.24873 z m -31.54692,1.61251 h 2.50476 c 1.0333,0 1.78502,0.6578 1.78502,1.65977 0,1.002 -0.75172,1.6593 -1.78502,1.6593 h -2.50476 z m -38.13827,1.08036 c -1.1429,0 -2.14486,0.75152 -2.45799,1.2212 v -1.0331 h -1.64418 v 7.56158 h 1.64418 v -5.27609 c 0.34444,-0.50099 1.01757,-1.01751 1.73774,-1.01751 0.8924,0 1.25239,0.54791 1.25239,1.36203 v 4.93157 h 1.64418 v -5.29169 c 0.32878,-0.48533 1.01751,-1.00191 1.75334,-1.00191 0.87675,0 1.23678,0.54791 1.23678,1.36203 v 4.93157 h 1.6437 v -5.46371 c 0,-1.53429 -0.78244,-2.28597 -2.17583,-2.28597 -1.12724,0 -2.12927,0.70484 -2.56763,1.39371 -0.2505,-0.82977 -0.93945,-1.39371 -2.06668,-1.39371 z m 17.78532,0 c -2.39538,0 -3.88288,1.80032 -3.88288,3.96085 0,2.17619 1.4875,3.97694 3.88288,3.97694 2.42668,0 3.89847,-1.80075 3.89847,-3.97694 0,-2.16053 -1.47179,-3.96085 -3.89847,-3.96085 z m 43.19507,0 c -1.91004,0 -2.97453,1.06474 -2.97453,2.30157 0,2.89637 4.57144,1.83173 4.57144,3.31906 0,0.59493 -0.50093,1.01749 -1.48726,1.01749 -0.98635,0 -2.03533,-0.51632 -2.56763,-1.06427 l -0.75143,1.18951 c 0.7828,0.76715 1.95681,1.17443 3.2406,1.17443 2.0353,0 3.14704,-1.01759 3.14704,-2.34835 0,-3.00596 -4.57144,-2.00432 -4.57144,-3.35073 0,-0.53231 0.54772,-0.92346 1.4088,-0.92346 0.93937,0 1.78469,0.39122 2.2387,0.90786 l 0.68905,-1.15834 c -0.68887,-0.61059 -1.65955,-1.06477 -2.94334,-1.06477 z m -47.93902,0.0156 c -0.98633,0 -1.89437,0.56388 -2.45799,1.28406 v -1.11156 h -1.6437 v 7.56158 h 1.6437 v -5.15085 c 0.32879,-0.53231 1.25258,-1.00191 1.94144,-1.00191 0.20353,0 0.37564,0.016 0.51655,0.0473 z m 36.51016,0.1725 v 5.35407 c 0,1.54995 0.79857,2.39562 2.4268,2.39562 1.18986,0 2.12882,-0.57943 2.67679,-1.19001 v 1.0019 h 1.64418 v -7.56158 h -1.64418 v 5.30729 c -0.3914,0.51665 -1.11118,0.98631 -1.94096,0.98631 -0.9237,0 -1.51893,-0.36033 -1.51893,-1.53454 v -4.75906 z m -31.76621,1.26798 c 1.40905,0 2.19191,1.17401 2.19191,2.50477 0,1.34643 -0.78286,2.52085 -2.19191,2.52085 -1.39339,0 -2.17632,-1.17442 -2.17632,-2.52085 0,-1.33076 0.78293,-2.50477 2.17632,-2.50477 z m 52.90177,4.27419 c -0.59492,0 -1.08035,0.50104 -1.08035,1.09596 0,0.57928 0.48543,1.08036 1.08035,1.08036 0.59493,0 1.09597,-0.50108 1.09597,-1.08036 0,-0.59492 -0.50104,-1.09596 -1.09597,-1.09596 z" />
  </g>
</svg>
