<?xml version="1.0" encoding="UTF-8" standalone="no"?>
<svg
   width="65"
   height="65"
   fill="none"
   version="1.1"
   id="svg7854"
   sodipodi:docname="business.svg"
   inkscape:version="1.2.2 (b0a8486, 2022-12-01)"
   xmlns:inkscape="http://www.inkscape.org/namespaces/inkscape"
   xmlns:sodipodi="http://sodipodi.sourceforge.net/DTD/sodipodi-0.dtd"
   xmlns="http://www.w3.org/2000/svg"
   xmlns:svg="http://www.w3.org/2000/svg">
  <defs
     id="defs7858" />
  <sodipodi:namedview
     id="namedview7856"
     pagecolor="#ffffff"
     bordercolor="#666666"
     borderopacity="1.0"
     inkscape:showpageshadow="2"
     inkscape:pageopacity="0.0"
     inkscape:pagecheckerboard="0"
     inkscape:deskcolor="#d1d1d1"
     showgrid="false"
     inkscape:zoom="3.6307692"
     inkscape:cx="-7.9872881"
     inkscape:cy="32.5"
     inkscape:window-width="1920"
     inkscape:window-height="982"
     inkscape:window-x="0"
     inkscape:window-y="25"
     inkscape:window-maximized="1"
     inkscape:current-layer="svg7854" />
  <rect
     width="65"
     height="65"
     rx="21"
     fill="#0A7DFF"
     id="rect7850"
     style="fill:#0478f9;fill-opacity:1" />
  <path
     d="M41.915 15.606a1.312 1.312 0 0 1-.392 1.813L20.782 30.753h7.343V29.44a3.062 3.062 0 0 1 3.063-3.062h5.687v-1.312a3.062 3.062 0 0 1 3.063-3.063h5.25c1.69 0 3.062 1.37 3.062 3.063v5.685h.438A1.313 1.313 0 0 1 50 32.063v12.25A5.687 5.687 0 0 1 44.312 50H20.689A5.688 5.688 0 0 1 15 44.313v-12.25a1.312 1.312 0 0 1 .602-1.105l24.5-15.75a1.314 1.314 0 0 1 1.815.396l-.002.002Zm3.71 15.145v-5.687a.438.438 0 0 0-.438-.438h-5.25a.438.438 0 0 0-.437.438v5.687h6.125Zm-8.75 0v-1.75h-5.688a.438.438 0 0 0-.437.438v1.312h6.125Zm-19.25 2.625v10.937a3.062 3.062 0 0 0 3.063 3.062h23.625a3.063 3.063 0 0 0 3.062-3.062V33.376h-29.75Z"
     fill="#fff"
     id="path7852" />
</svg>
