<?xml version="1.0" encoding="UTF-8" standalone="no"?>
<svg
   width="65"
   height="65"
   fill="none"
   version="1.1"
   id="svg186"
   sodipodi:docname="cms.svg"
   inkscape:version="1.2.2 (b0a8486, 2022-12-01)"
   xmlns:inkscape="http://www.inkscape.org/namespaces/inkscape"
   xmlns:sodipodi="http://sodipodi.sourceforge.net/DTD/sodipodi-0.dtd"
   xmlns="http://www.w3.org/2000/svg"
   xmlns:svg="http://www.w3.org/2000/svg">
  <defs
     id="defs190" />
  <sodipodi:namedview
     id="namedview188"
     pagecolor="#ffffff"
     bordercolor="#666666"
     borderopacity="1.0"
     inkscape:showpageshadow="2"
     inkscape:pageopacity="0.0"
     inkscape:pagecheckerboard="0"
     inkscape:deskcolor="#d1d1d1"
     showgrid="false"
     inkscape:zoom="3.6307692"
     inkscape:cx="-8.2627119"
     inkscape:cy="32.5"
     inkscape:window-width="1920"
     inkscape:window-height="982"
     inkscape:window-x="0"
     inkscape:window-y="25"
     inkscape:window-maximized="1"
     inkscape:current-layer="svg186" />
  <rect
     width="65"
     height="65"
     rx="21"
     fill="#0A7DFF"
     id="rect182"
     style="fill:#0478f9;fill-opacity:1" />
  <path
     d="M15 20.966A5.966 5.966 0 0 1 20.966 15h23.068A5.966 5.966 0 0 1 50 20.966v23.068A5.966 5.966 0 0 1 44.034 50H20.966A5.966 5.966 0 0 1 15 44.034V20.966Zm5.966-3.58a3.58 3.58 0 0 0-3.58 3.58v23.068a3.58 3.58 0 0 0 3.58 3.58h14.716V17.386H20.966Zm23.068 30.228a3.58 3.58 0 0 0 3.58-3.58V39.66h-9.546v7.955h5.966Zm3.58-10.341v-9.546h-9.546v9.546h9.546Zm0-11.932v-4.375a3.58 3.58 0 0 0-3.58-3.58h-5.966v7.955h9.546Zm-25.057-3.182a1.99 1.99 0 0 0-1.989 1.989v5.568a1.99 1.99 0 0 0 1.989 1.988h7.954a1.99 1.99 0 0 0 1.989-1.988v-5.568a1.99 1.99 0 0 0-1.989-1.989h-7.954Zm.398 7.16v-4.773h7.159v4.772h-7.16Zm-2.387 6.76a1.193 1.193 0 0 1 1.193-1.193h9.546a1.193 1.193 0 1 1 0 2.387H21.76a1.193 1.193 0 0 1-1.193-1.194Zm1.193 4.376a1.193 1.193 0 0 0 0 2.386h9.546a1.193 1.193 0 1 0 0-2.386H21.76Z"
     fill="#fff"
     id="path184" />
</svg>
