<?xml version="1.0" encoding="UTF-8" standalone="no"?>
<svg
   width="65"
   height="65"
   fill="none"
   version="1.1"
   id="svg186"
   sodipodi:docname="landingpage.svg"
   inkscape:version="1.2.2 (b0a8486, 2022-12-01)"
   xmlns:inkscape="http://www.inkscape.org/namespaces/inkscape"
   xmlns:sodipodi="http://sodipodi.sourceforge.net/DTD/sodipodi-0.dtd"
   xmlns="http://www.w3.org/2000/svg"
   xmlns:svg="http://www.w3.org/2000/svg">
  <defs
     id="defs190" />
  <sodipodi:namedview
     id="namedview188"
     pagecolor="#ffffff"
     bordercolor="#666666"
     borderopacity="1.0"
     inkscape:showpageshadow="2"
     inkscape:pageopacity="0.0"
     inkscape:pagecheckerboard="0"
     inkscape:deskcolor="#d1d1d1"
     showgrid="false"
     inkscape:zoom="3.6307692"
     inkscape:cx="26.716102"
     inkscape:cy="32.5"
     inkscape:window-width="1920"
     inkscape:window-height="982"
     inkscape:window-x="0"
     inkscape:window-y="25"
     inkscape:window-maximized="1"
     inkscape:current-layer="svg186" />
  <rect
     width="65"
     height="65"
     rx="21"
     fill="#0A7DFF"
     id="rect182"
     style="fill:#0478f9;fill-opacity:1" />
  <path
     d="M28.334 35.709a2.975 2.975 0 0 1 2.974 2.974v5.947a2.975 2.975 0 0 1-2.974 2.975h-9.359A2.975 2.975 0 0 1 16 44.63v-5.947a2.975 2.975 0 0 1 2.975-2.974h9.358Zm18.691 0A2.975 2.975 0 0 1 50 38.683v5.947a2.975 2.975 0 0 1-2.975 2.975h-9.358a2.975 2.975 0 0 1-2.976-2.975v-5.947a2.975 2.975 0 0 1 2.975-2.974h9.359Zm-18.691 2.55h-9.359a.425.425 0 0 0-.425.425v5.946c0 .236.19.425.425.425h9.358a.425.425 0 0 0 .426-.425v-5.947a.425.425 0 0 0-.425-.425Zm18.691 0h-9.358a.425.425 0 0 0-.425.425v5.946c0 .236.19.425.425.425h9.358a.425.425 0 0 0 .425-.425v-5.947a.425.425 0 0 0-.425-.425Zm0-21.259A2.976 2.976 0 0 1 50 19.975v9.35a2.975 2.975 0 0 1-2.975 2.975h-28.05A2.975 2.975 0 0 1 16 29.325v-9.35a2.975 2.975 0 0 1 2.73-2.965l.245-.01h28.05Zm0 2.55h-28.05l-.097.012a.425.425 0 0 0-.328.413v9.35c0 .235.19.425.425.425h28.05a.425.425 0 0 0 .425-.425v-9.35a.425.425 0 0 0-.425-.425Z"
     fill="#fff"
     id="path184" />
</svg>
