<?xml version="1.0" encoding="UTF-8" standalone="no"?>
<svg
   width="65"
   height="65"
   fill="none"
   version="1.1"
   id="svg186"
   sodipodi:docname="logo.svg"
   inkscape:version="1.2.2 (b0a8486, 2022-12-01)"
   xmlns:inkscape="http://www.inkscape.org/namespaces/inkscape"
   xmlns:sodipodi="http://sodipodi.sourceforge.net/DTD/sodipodi-0.dtd"
   xmlns="http://www.w3.org/2000/svg"
   xmlns:svg="http://www.w3.org/2000/svg">
  <defs
     id="defs190" />
  <sodipodi:namedview
     id="namedview188"
     pagecolor="#ffffff"
     bordercolor="#666666"
     borderopacity="1.0"
     inkscape:showpageshadow="2"
     inkscape:pageopacity="0.0"
     inkscape:pagecheckerboard="0"
     inkscape:deskcolor="#d1d1d1"
     showgrid="false"
     inkscape:zoom="3.6307692"
     inkscape:cx="-7.9872881"
     inkscape:cy="32.5"
     inkscape:window-width="1920"
     inkscape:window-height="982"
     inkscape:window-x="0"
     inkscape:window-y="25"
     inkscape:window-maximized="1"
     inkscape:current-layer="svg186" />
  <path
     id="rect182"
     style="fill:#0478f9;fill-opacity:1"
     d="M 21,0 H 44 C 55.634,0 65,9.366 65,21 V 44 C 65,55.634 55.634,65 44,65 H 21 C 9.366,65 0,55.634 0,44 V 21 C 0,9.366 9.366,0 21,0 Z" />
  <path
     d="M40.665 21.607c.542.052 1.172.347 1.777.951.604.605.901 1.235.948 1.777.044.5-.11 1.068-.698 1.657-1.38 1.38-3.739 2.917-6.544 4.741l-.164.104-1.824-1.82.107-.165c1.823-2.806 3.36-5.163 4.741-6.544.589-.589 1.157-.745 1.657-.7Zm-2.798 11.116c2.631-1.709 5.13-3.35 6.667-4.887 1.083-1.084 1.568-2.391 1.45-3.728-.114-1.297-.78-2.467-1.7-3.386-.923-.923-2.092-1.59-3.387-1.704-1.34-.12-2.647.364-3.73 1.45-1.538 1.538-3.179 4.034-4.89 6.667l-2.73-2.735a5.21 5.21 0 0 0-7.37 0l-1.842 1.844a2.605 2.605 0 0 0 0 3.684l-1.38 1.38a3.255 3.255 0 0 0 0 4.606l10.13 10.132a3.255 3.255 0 0 0 4.606 0l1.38-1.38a2.605 2.605 0 0 0 3.684 0l1.842-1.845a5.21 5.21 0 0 0 0-7.368l-2.73-2.73Zm-2.232 1.454 3.12 3.12a2.605 2.605 0 0 1 0 3.684l-1.841 1.842L22.177 28.09l1.841-1.842a2.605 2.605 0 0 1 3.687 0l7.184 7.182.746.748Zm-13.458-2.405L33.23 42.821l-1.38 1.38a.653.653 0 0 1-.923 0L20.796 34.075a.65.65 0 0 1 0-.922l1.38-1.38Z"
     fill="#fff"
     id="path184" />
</svg>
