<?xml version="1.0" encoding="UTF-8" standalone="no"?>
<svg
   width="65"
   height="65"
   fill="none"
   version="1.1"
   id="svg186"
   sodipodi:docname="slicing.svg"
   inkscape:version="1.2.2 (b0a8486, 2022-12-01)"
   xmlns:inkscape="http://www.inkscape.org/namespaces/inkscape"
   xmlns:sodipodi="http://sodipodi.sourceforge.net/DTD/sodipodi-0.dtd"
   xmlns="http://www.w3.org/2000/svg"
   xmlns:svg="http://www.w3.org/2000/svg">
  <defs
     id="defs190" />
  <sodipodi:namedview
     id="namedview188"
     pagecolor="#ffffff"
     bordercolor="#666666"
     borderopacity="1.0"
     inkscape:showpageshadow="2"
     inkscape:pageopacity="0.0"
     inkscape:pagecheckerboard="0"
     inkscape:deskcolor="#d1d1d1"
     showgrid="false"
     inkscape:zoom="3.6307692"
     inkscape:cx="-8.125"
     inkscape:cy="32.5"
     inkscape:window-width="1309"
     inkscape:window-height="456"
     inkscape:window-x="0"
     inkscape:window-y="25"
     inkscape:window-maximized="0"
     inkscape:current-layer="svg186" />
  <rect
     width="65"
     height="65"
     rx="21"
     fill="#0A7DFF"
     id="rect182"
     style="fill:#0478f9;fill-opacity:1" />
  <path
     d="m27.61 21.255-2.68 2.699-5.887.001a1.348 1.348 0 0 0-1.348 1.348v20.656c0 .744.604 1.348 1.348 1.348h20.663a1.347 1.347 0 0 0 1.348-1.348l-.004-5.892 2.699-2.679v8.571A4.042 4.042 0 0 1 39.706 50H19.043A4.043 4.043 0 0 1 15 45.957V25.303a4.043 4.043 0 0 1 4.043-4.043l8.567-.005Zm-6.824 11.172 3.591-3.588a1.347 1.347 0 0 1 1.754-.131l.151.131 9.884 9.877a1.348 1.348 0 0 1 .131 1.756l-.13.15-3.594 3.594a1.348 1.348 0 0 1-1.754.131l-.15-.13-9.883-9.883a1.347 1.347 0 0 1-.132-1.756l.132-.15 3.591-3.589-3.593 3.588h.002Zm4.544-.73-1.686 1.684 7.976 7.978 1.69-1.689-7.98-7.972Zm24.31-16.341a4.635 4.635 0 0 1-.839 7.216l-.264.153-2.099 1.11.928.925a5.84 5.84 0 0 1 .242 8l-.242.259-2.216 2.213a1.347 1.347 0 0 1-1.753.131l-.151-.13-.845-.845-2.641 2.64a1.348 1.348 0 0 1-1.754.132l-.15-.131-9.883-9.883a1.348 1.348 0 0 1-.131-1.755l.13-.15 2.64-2.642-.844-.843a1.347 1.347 0 0 1-.13-1.755l.132-.151 2.212-2.21a5.847 5.847 0 0 1 7.999-.243l.259.243.923.923 1.11-2.097c.162-.305.358-.593.583-.853l.233-.253a4.63 4.63 0 0 1 6.553-.004h-.002Zm-17.123 9.155-1.685 1.683 7.976 7.978 1.688-1.689-7.979-7.972Zm1.594-5.168-.225.203-1.258 1.258 11.57 11.571 1.261-1.263a3.143 3.143 0 0 0 .033-4.415l-7.155-7.15a3.151 3.151 0 0 0-4.226-.204Zm10.887-2.079c-.09.09-.173.19-.245.298l-.097.166-1.497 2.826 1.287 1.288 2.83-1.5a1.935 1.935 0 1 0-2.279-3.078Z"
     fill="#fff"
     id="path184" />
</svg>
